<?xml version="1.0" standalone="no"?>
<!DOCTYPE svg PUBLIC "-//W3C//DTD SVG 20010904//EN" "http://www.w3.org/TR/2001/REC-SVG-20010904/DTD/svg10.dtd">
<!-- Created using Karbon, part of Calligra: http://www.calligra.org/karbon -->
<svg xmlns="http://www.w3.org/2000/svg" xmlns:xlink="http://www.w3.org/1999/xlink" width="51.2pt" height="51.2pt">
<defs/>
<g id="layer0">
  <path id="shape0" transform="translate(0.268141, 0.268141)" fill="#203541" fill-rule="evenodd" d="M14.7339 0.878859L31.7319 17.8769L48.7299 0.878859C49.9015 -0.292953 51.8012 -0.292953 52.9729 0.878859L62.5849 10.4909C63.7567 11.6625 63.7567 13.5622 62.5849 14.7339L45.5869 31.7319L62.5849 48.7299C63.7567 49.9015 63.7567 51.8012 62.5849 52.9729L52.9729 62.5849C51.8012 63.7567 49.9015 63.7567 48.7299 62.5849L31.7319 45.5869L14.7339 62.5849C13.5622 63.7567 11.6625 63.7567 10.4909 62.5849L0.878859 52.9719C-0.292953 51.8002 -0.292953 49.9005 0.878859 48.7289L17.8769 31.7319L0.878859 14.7339C-0.292953 13.5622 -0.292953 11.6625 0.878859 10.4909L10.4909 0.878859C11.6625 -0.292953 13.5622 -0.292953 14.7339 0.878859Z"/>
 </g>
</svg>
